<?xml version="1.0" standalone="no"?><svg xmlns="http://www.w3.org/2000/svg" viewBox="0 0 1440 320"><path fill="#0099ff" fill-opacity="1" d="M0,160L30,165.3C60,171,120,181,180,176C240,171,300,149,360,117.3C420,85,480,43,540,58.7C600,75,660,149,720,181.3C780,213,840,203,900,165.3C960,128,1020,64,1080,58.7C1140,53,1200,107,1260,112C1320,117,1380,75,1410,53.3L1440,32L1440,320L1410,320C1380,320,1320,320,1260,320C1200,320,1140,320,1080,320C1020,320,960,320,900,320C840,320,780,320,720,320C660,320,600,320,540,320C480,320,420,320,360,320C300,320,240,320,180,320C120,320,60,320,30,320L0,320Z"></path></svg>